<?xml version="1.0" encoding="UTF-8"?>
<svg width="56px" height="76px" viewBox="0 0 56 76" version="1.1" xmlns="http://www.w3.org/2000/svg" xmlns:xlink="http://www.w3.org/1999/xlink">
    <defs></defs>
    <g id="HOME" stroke="none" stroke-width="1" fill="none" fill-rule="evenodd">
        <g id="Desktop_Home" transform="translate(-104.000000, -3094.000000)" fill="#FFFFFF">
            <g id="Footer-Desktop" transform="translate(0.000000, 3046.000000)">
                <g id="Footer">
                    <g id="footer">
                        <g id="Logo-+-nome" transform="translate(104.000000, 48.000000)">
                            <path d="M47.2086588,26.8063922 C47.1966118,26.8063922 47.0987294,26.8071373 47.0881882,26.8071373 C42.9869176,26.8071373 38.3262118,29.1087451 35.2941176,35.6119608 C33.6715294,39.2174902 32.768,43.3550196 32.7619765,47.5566275 L31.4639059,47.5566275 C31.4639059,38.8538824 33.6828235,31.3343529 36.9008941,27.7839608 C37.7961412,26.7482745 39.2463059,26.2766275 40.7107765,26.4308627 C41.0157176,26.4636471 41.3116235,26.524 41.5939765,26.6104314 C41.2431059,25.8608627 40.5165176,25.3072549 39.6272941,25.2126275 C39.2252235,25.1701569 38.8382118,25.2267843 38.4865882,25.360902 C38.9089882,24.8110196 39.2786824,24.3341569 39.6257882,23.9005098 C40.0481882,23.4236471 40.2243765,23.3126275 40.5775059,23.1658431 L40.576,23.1665882 C40.9532235,23.0332157 41.3590588,22.9922353 41.7566118,23.0466275 C42.1541647,23.104 42.4116706,23.2470588 42.9078588,23.4147059 C43.5696941,23.6374902 44.1396706,23.6836863 44.8218353,23.6263137 C45.7057882,23.5696863 46.5664,23.2120392 47.2372706,22.5667843 C46.5483294,22.7664706 45.8081882,22.7739216 45.1094588,22.5816863 C44.3866353,22.3641176 43.9393882,22.002 43.0358588,21.6734118 C42.5705412,21.5020392 42.0683294,21.4729804 41.5894588,21.5743137 C42.0555294,21.0542353 42.5728,20.4954118 43.1984941,19.8263137 C43.5132235,19.4895294 43.9476706,19.1706275 44.0997647,19.0655686 C44.5447529,18.7734902 44.9445647,18.5931765 45.2766118,18.4843922 L45.2758588,18.482902 C45.5958588,18.3838039 45.9286588,18.3301569 46.2622118,18.3264314 L46.2576941,18.3197255 C45.9625412,17.8458431 45.9979294,17.2184706 46.3864471,16.7766275 C46.8645647,16.233451 47.6965647,16.1775686 48.2454588,16.6507059 C48.7717647,17.1052157 48.8440471,17.8823529 48.4246588,18.4240392 C48.9758118,18.5112157 49.5570824,18.3435686 49.9779765,17.9196078 C50.6669176,17.2236863 50.6541176,16.1075294 49.9508706,15.4265098 C49.8070588,15.2864314 49.6361412,15.1672157 49.4637176,15.086 C49.4637176,15.086 49.3003294,15.017451 49.0586353,14.9615686 C48.7160471,14.8825882 48.5315765,14.8296863 48.5315765,14.8296863 C48.5217882,14.8267059 48.5127529,14.8214902 48.5067294,14.8155294 C48.4690824,14.7827451 48.4660706,14.7268627 48.4976941,14.6896078 C48.5142588,14.6702353 48.5383529,14.6598039 48.5624471,14.6598039 C48.9615059,14.6493725 49.0488471,14.6344706 49.0488471,14.6344706 C49.0488471,14.6344706 49.2724706,14.6337255 49.5412706,14.5651765 L49.5405176,14.5644314 C49.8642824,14.4847059 50.1345882,14.2999216 50.3235765,14.0562745 C50.4350118,13.9012941 50.5185882,13.7321569 50.5743059,13.5376863 C50.6714353,13.2046275 50.6842353,12.8007843 50.6217412,12.2836863 C50.5133176,11.3761569 50.5411765,10.7532549 50.5411765,10.7532549 C50.5411765,10.7532549 49.9207529,10.8635294 48.9984,10.8761961 C48.4720941,10.8836471 48.0692706,10.9507059 47.7477647,11.0892941 C47.5610353,11.1697647 47.4014118,11.2740784 47.2613647,11.4044706 C47.0422588,11.620549 46.8939294,11.9111373 46.8555294,12.2389804 C46.8216471,12.5109412 46.8517647,12.7307451 46.8517647,12.7307451 C46.8517647,12.7307451 46.8472471,12.8186667 46.8894118,13.2113333 C46.8939294,13.2351765 46.8856471,13.2605098 46.8690824,13.2783922 C46.8359529,13.3156471 46.7802353,13.3201176 46.7425882,13.2873333 C46.7350588,13.2813725 46.7282824,13.2731765 46.7237647,13.2649804 C46.7237647,13.2649804 46.6469647,13.0906275 46.5227294,12.7650196 C46.4361412,12.5355294 46.3442824,12.3835294 46.3442824,12.3835294 C46.2388706,12.2255686 46.0965647,12.0735686 45.9384471,11.9513725 C45.1629176,11.3508235 44.0448,11.4879216 43.4379294,12.2553725 C43.0697412,12.7232941 42.9778824,13.3171373 43.1382588,13.8454118 C43.6246588,13.3633333 44.4129882,13.330549 44.9377882,13.786549 C45.4851765,14.2611765 45.5386353,15.0852549 45.0597647,15.6261961 C44.6682353,16.0672941 44.0440471,16.1835294 43.5297882,15.9562745 L43.5222588,15.9532941 C43.5621647,16.2811373 43.5538824,16.6149412 43.4959059,16.9420392 L43.4944,16.9412941 C43.4236235,17.3123529 43.2783059,17.7750588 43.0004706,18.3055686 C42.8792471,18.5231373 42.7083294,18.7332549 42.5916235,18.8673725 C41.8800941,19.6273725 41.3010824,20.2510196 40.7830588,20.8307059 C40.7951059,20.368 40.6844235,19.904549 40.4487529,19.494 C40.0090353,18.7205882 39.5715765,18.3413333 39.2131765,17.6141176 C38.9089882,16.9621569 38.7975529,16.2379216 38.8871529,15.5315686 C38.3503059,16.2900784 38.1304471,17.1886667 38.2147765,18.0611765 C38.2674824,18.7362353 38.4045176,19.2853725 38.7320471,19.897098 C38.9782588,20.3560784 39.1627294,20.5840784 39.2839529,20.9640784 C39.4014118,21.3418431 39.424,21.743451 39.3524706,22.1323922 C39.2726588,22.5086667 39.0144,22.890902 38.8826353,23.0697255 C38.4549647,23.6032157 37.9956706,24.1925882 37.4573176,24.8967059 C37.5160471,24.4272941 37.4377412,23.9370196 37.2020706,23.4847451 C36.7902118,22.6979216 36.0056471,22.2285098 35.1736471,22.1778431 C35.3573647,22.4065882 35.5207529,22.655451 35.6608,22.9259216 C36.0214588,23.6151373 36.2134588,24.3624706 36.2164706,25.0919216 L36.2149647,25.0911765 C36.2112,26.1790196 34.8408471,28.0842353 34.4530824,28.7138431 C31.8614588,32.8856471 30.1688471,39.7703529 30.1688471,47.5566275 L28.8813176,47.5566275 L28.8813176,42.8081176 C28.8813176,33.1911373 31.2877176,24.4772157 35.5373176,16.53 C36.1825882,15.3199608 36.5658353,13.7165098 36.5658353,12.2523922 L36.5665882,12.2523922 C36.5673412,12.205451 36.5673412,12.16 36.5673412,12.1138039 C36.5673412,10.1519608 35.9047529,8.34286275 34.7888941,6.89439216 C34.2746353,6.22827451 33.6655059,5.63815686 32.9803294,5.14490196 C32.1453176,4.52498039 30.3036235,3.54741176 29.6297412,3.16294118 C28.5598118,2.51247059 27.8467765,1.33372549 27.8467765,0 C27.8467765,1.33372549 27.1337412,2.51247059 26.0645647,3.16294118 C25.3921882,3.54741176 23.5504941,4.52498039 22.7162353,5.14490196 C22.0303059,5.63815686 21.4204235,6.22827451 20.9061647,6.89439216 C19.7903059,8.34286275 19.1277176,10.1519608 19.1277176,12.1138039 C19.1277176,12.16 19.1284706,12.205451 19.1292235,12.2523922 C19.1292235,13.7165098 19.5117176,15.3199608 20.1592471,16.53 C24.4080941,24.4772157 26.8137412,33.1911373 26.8137412,42.8081176 L26.8137412,47.5566275 L25.5262118,47.5566275 C25.5262118,39.7703529 23.8336,32.8856471 21.2427294,28.7138431 C20.8534588,28.0842353 19.4846118,26.1790196 19.4800941,25.0911765 L19.4785882,25.0919216 C19.4823529,24.3624706 19.6743529,23.6151373 20.0342588,22.9259216 C20.1750588,22.655451 20.3384471,22.4065882 20.5229176,22.1778431 C19.6901647,22.2285098 18.9048471,22.6979216 18.4944941,23.4847451 C18.2580706,23.9370196 18.1790118,24.4272941 18.2384941,24.8967059 C17.7008941,24.1925882 17.2416,23.6032157 16.8124235,23.0697255 C16.6814118,22.890902 16.4239059,22.5086667 16.3425882,22.1323922 C16.2718118,21.743451 16.2944,21.3418431 16.4118588,20.9640784 C16.5330824,20.5840784 16.7152941,20.3560784 16.9637647,19.897098 C17.2920471,19.2853725 17.4283294,18.7362353 17.4817882,18.0611765 C17.5646118,17.1886667 17.3447529,16.2900784 16.8086588,15.5315686 C16.8975059,16.2379216 16.7875765,16.9621569 16.4826353,17.6141176 C16.1227294,18.3413333 15.6867765,18.7205882 15.2463059,19.494 C15.0121412,19.904549 14.8992,20.368 14.9127529,20.8307059 C14.3932235,20.2510196 13.8157176,19.6273725 13.1034353,18.8673725 C12.9859765,18.7332549 12.8180706,18.5231373 12.6953412,18.3055686 C12.4167529,17.7750588 12.2721882,17.3123529 12.1999059,16.9412941 L12.1991529,16.9420392 C12.1419294,16.6149412 12.1328941,16.2811373 12.1735529,15.9532941 L12.1652706,15.9562745 C11.6517647,16.1835294 11.0275765,16.0672941 10.6368,15.6261961 C10.1564235,15.0852549 10.2098824,14.2611765 10.7572706,13.786549 C11.2828235,13.330549 12.0696471,13.3633333 12.5575529,13.8454118 C12.7171765,13.3171373 12.6260706,12.7232941 12.2578824,12.2553725 C11.6510118,11.4879216 10.5328941,11.3508235 9.75736471,11.9513725 C9.59774118,12.0735686 9.45543529,12.2255686 9.35228235,12.3835294 C9.35228235,12.3835294 9.26042353,12.5355294 9.17232941,12.7650196 C9.04809412,13.0906275 8.97054118,13.2649804 8.97054118,13.2649804 C8.96602353,13.2731765 8.96,13.2813725 8.95247059,13.2873333 C8.91557647,13.3201176 8.85985882,13.3156471 8.82597647,13.2783922 C8.80865882,13.2605098 8.80263529,13.2351765 8.80564706,13.2113333 C8.84856471,12.8186667 8.84329412,12.7307451 8.84329412,12.7307451 C8.84329412,12.7307451 8.87265882,12.5109412 8.84028235,12.2389804 L8.84028235,12.2389804 C8.80338824,11.9111373 8.6528,11.620549 8.43369412,11.4044706 C8.29364706,11.2740784 8.13402353,11.1697647 7.94729412,11.0892941 C7.62654118,10.9507059 7.22371765,10.8836471 6.69665882,10.8761961 C5.77505882,10.8635294 5.15388235,10.7532549 5.15388235,10.7532549 C5.15388235,10.7532549 5.18249412,11.3761569 5.07331765,12.2836863 C5.01082353,12.8007843 5.02437647,13.2046275 5.12150588,13.5376863 C5.17722353,13.7321569 5.26004706,13.9012941 5.37223529,14.0562745 C5.56122353,14.2999216 5.83002353,14.4847059 6.15529412,14.5644314 L6.15454118,14.5651765 C6.42258824,14.6337255 6.64545882,14.6344706 6.64545882,14.6344706 C6.64545882,14.6344706 6.73355294,14.6493725 7.13261176,14.6598039 C7.15670588,14.6598039 7.18004706,14.6702353 7.19736471,14.6896078 C7.22974118,14.7268627 7.22597647,14.7827451 7.18983529,14.8155294 C7.1808,14.8214902 7.17327059,14.8267059 7.16348235,14.8296863 C7.16348235,14.8296863 6.97825882,14.8825882 6.63792941,14.9615686 C6.39472941,15.017451 6.23209412,15.086 6.23209412,15.086 C6.05967059,15.1672157 5.88875294,15.2864314 5.74494118,15.4265098 C5.04094118,16.1075294 5.02964706,17.2236863 5.71783529,17.9196078 C6.13797647,18.3435686 6.72075294,18.5112157 7.27115294,18.4240392 C6.85176471,17.8823529 6.92404706,17.1052157 7.4496,16.6507059 C7.99774118,16.1775686 8.83124706,16.233451 9.30936471,16.7766275 C9.69938824,17.2184706 9.73327059,17.8458431 9.43661176,18.3197255 L9.4336,18.3264314 C9.7664,18.3301569 10.0992,18.3838039 10.4207059,18.482902 L10.4192,18.4843922 C10.7512471,18.5931765 11.1503059,18.7734902 11.5960471,19.0655686 C11.7488941,19.1706275 12.1825882,19.4895294 12.4965647,19.8263137 C13.1230118,20.4954118 13.6387765,21.0542353 14.1056,21.5743137 C13.6274824,21.4729804 13.1245176,21.5020392 12.6592,21.6734118 C11.7564235,22.002 11.3099294,22.3641176 10.5863529,22.5816863 C9.88762353,22.7739216 9.14823529,22.7664706 8.45778824,22.5667843 C9.12865882,23.2120392 9.98927059,23.5696863 10.8732235,23.6263137 C11.5553882,23.6836863 12.1261176,23.6374902 12.7879529,23.4147059 C13.2833882,23.2470588 13.5416471,23.104 13.9392,23.0466275 C14.3367529,22.9922353 14.7418353,23.0332157 15.1190588,23.1665882 L15.1175529,23.1658431 C15.4721882,23.3126275 15.6476235,23.4236471 16.0707765,23.9005098 C16.4163765,24.3341569 16.7875765,24.8110196 17.2099765,25.360902 C16.8568471,25.2267843 16.4698353,25.1701569 16.0692706,25.2126275 C15.1785412,25.3072549 14.4519529,25.8608627 14.1025882,26.6104314 C14.3849412,26.524 14.6778353,26.4636471 14.9842824,26.4308627 C16.4487529,26.2766275 17.8996706,26.7482745 18.7949176,27.7839608 C22.0129882,31.3343529 24.2319059,38.8538824 24.2326588,47.5566275 L22.9360941,47.5566275 C22.9293176,43.3550196 22.0272941,39.2174902 20.4032,35.6119608 C17.3711059,29.1087451 12.7119059,26.8071373 8.60912941,26.8071373 C8.59934118,26.8071373 8.49995294,26.8063922 8.48865882,26.8063922 C3.80084706,26.8063922 0,30.566902 0,35.2066275 C0,38.6050196 2.03896471,41.5325098 4.97091765,42.8550588 C5.81270588,43.2343137 6.67708235,43.5792941 7.60997647,43.7864314 C9.71670588,44.2528627 11.0366118,44.5829412 12.2706824,45.3317647 C13.0100706,45.7579608 13.5062588,46.5507451 13.5062588,47.4582745 C13.5062588,48.1437647 13.2216471,48.7629412 12.7646118,49.2092549 L12.7683765,49.2085098 L12.0869647,49.8314118 C12.0869647,49.8314118 11.8701176,50.0199216 11.7662118,50.1033725 C11.3136941,50.4677255 10.5743059,50.8395294 9.93957647,50.9132941 C9.87331765,50.9214902 9.80404706,50.896902 9.75887059,50.8417647 C9.72047059,50.7963137 9.70691765,50.7389412 9.71670588,50.6860392 L9.71670588,50.6890196 C9.73929412,50.5504314 9.74757647,50.4081176 9.73628235,50.2620784 C9.664,49.2882353 8.80790588,48.5580392 7.82381176,48.6295686 C7.78616471,48.632549 7.74701176,48.6370196 7.71011765,48.6414902 C7.70785882,48.6422353 7.70484706,48.6422353 7.70258824,48.6429804 C7.67096471,48.647451 7.64084706,48.6526667 7.60997647,48.6586275 C7.60470588,48.6593725 7.60094118,48.6601176 7.59642353,48.6608627 C7.56555294,48.6675686 7.53543529,48.6742745 7.50456471,48.6824706 C7.50230588,48.6824706 7.50004706,48.6832157 7.49778824,48.6839608 C6.68310588,48.8970588 6.11087059,49.6600392 6.17411765,50.5213725 C6.19444706,50.7978039 6.27877647,51.0533725 6.40828235,51.2776471 C6.41129412,51.2821176 6.41581176,51.2865882 6.41807059,51.2910588 C6.42936471,51.3111765 6.44141176,51.330549 6.45496471,51.3506667 C6.46550588,51.3663137 6.47604706,51.3827059 6.48734118,51.399098 C6.49185882,51.4058039 6.49788235,51.4132549 6.5024,51.4192157 C6.50390588,51.4229412 6.50616471,51.4266667 6.50992941,51.4296471 C6.51444706,51.437098 6.51971765,51.4423137 6.52498824,51.4490196 C6.54305882,51.4728627 6.56112941,51.4959608 6.57995294,51.5183137 C6.68536471,51.6449804 6.80583529,51.7597255 6.93308235,51.8476471 C6.93308235,51.8476471 6.97825882,51.8789412 7.06032941,51.9214118 C7.14465882,51.969098 7.23275294,52.0108235 7.32310588,52.045098 C7.64235294,52.1784706 7.81251765,52.2589412 7.81251765,52.2589412 C7.82004706,52.2641569 7.82757647,52.2701176 7.83435294,52.2783137 C7.86597647,52.3155686 7.8592,52.371451 7.8208,52.4034902 C7.80122353,52.4198824 7.77487059,52.4258431 7.75152941,52.4221176 C7.35472941,52.3647451 7.26512941,52.3662353 7.26512941,52.3662353 C7.26512941,52.3662353 7.04376471,52.3282353 6.76818824,52.3505882 L6.76818824,52.3513333 C6.43312941,52.3751765 6.13421176,52.5130196 5.90682353,52.7231373 C5.76828235,52.8572549 5.65609412,53.0114902 5.56875294,53.1940392 C5.41665882,53.5069804 5.33232941,53.9048627 5.30522353,54.4271765 C5.25854118,55.3421569 5.12301176,55.9546275 5.12301176,55.9546275 C5.12301176,55.9546275 5.75698824,55.9479216 6.67181176,56.088 C7.1936,56.1677255 7.60395294,56.1669804 7.94578824,56.0827843 C8.14381176,56.0343529 8.32,55.9576078 8.47962353,55.8518039 C8.73336471,55.6729804 8.93063529,55.411451 9.02324706,55.0910588 L9.024,55.0918039 C9.10155294,54.8280392 9.10832941,54.606 9.10832941,54.606 C9.10832941,54.606 9.12865882,54.5203137 9.152,54.1239216 C9.15350588,54.1000784 9.16404706,54.0769804 9.18512941,54.0605882 C9.22352941,54.0292941 9.27924706,54.0352549 9.31087059,54.0725098 C9.31764706,54.0807059 9.32216471,54.0896471 9.32592941,54.0985882 C9.32592941,54.0985882 9.37185882,54.2796471 9.43811765,54.6141961 C9.45317647,54.7095686 9.47727059,54.8041961 9.50738824,54.895098 C9.53298824,54.9822745 9.55407059,55.0336863 9.55407059,55.0336863 C9.61656471,55.1745098 9.70390588,55.3153333 9.80856471,55.442 C9.82738824,55.465098 9.84545882,55.4881961 9.86503529,55.510549 C9.87105882,55.5157647 9.87557647,55.5224706 9.88235294,55.5284314 C9.88536471,55.5321569 9.88837647,55.5351373 9.89063529,55.5381176 C9.89590588,55.5433333 9.90268235,55.5500392 9.90795294,55.556 C9.92225882,55.5701569 9.93581176,55.5835686 9.95011765,55.5977255 C9.96668235,55.6141176 9.984,55.6297647 10.0005647,55.6454118 C10.0043294,55.6491373 10.0088471,55.6528627 10.0126118,55.6565882 C10.2076235,55.829451 10.4440471,55.9613333 10.7120941,56.0373333 C11.5523765,56.2742745 12.4235294,55.874902 12.7992471,55.1275686 C12.8007529,55.1260784 12.8015059,55.123098 12.8030118,55.1201176 C12.8165647,55.0932941 12.8293647,55.0649804 12.8414118,55.0366667 C12.8429176,55.0321961 12.8459294,55.0284706 12.8481882,55.024 C12.8587294,54.9949412 12.8715294,54.9666275 12.8813176,54.9368235 C12.8828235,54.9345882 12.8835765,54.9323529 12.8843294,54.9301176 C12.8971294,54.8943529 12.9099294,54.8585882 12.9189647,54.8220784 C13.1892706,53.8832549 12.6396235,52.9056863 11.6924235,52.6381961 C11.5501176,52.5979608 11.4070588,52.5756078 11.2655059,52.5711373 L11.2685176,52.5718824 C11.2128,52.5696471 11.1608471,52.5450588 11.1224471,52.4988627 C11.0772706,52.4444706 11.0667294,52.371451 11.0878118,52.3096078 C11.2888471,51.7090588 11.7684706,51.155451 12.1984,50.7665098 C12.4687059,50.5206275 13.2788706,49.8545098 13.9166118,49.0036078 L13.9188706,49.0036078 C14.0717176,48.8091373 14.2064941,48.6012549 14.3254588,48.3821961 C14.4918588,48.084902 14.6251294,47.773451 14.6981647,47.4575294 C14.6989176,47.454549 14.6996706,47.4530588 14.6996706,47.4508235 C14.7809882,47.1512941 14.8321882,46.839098 14.848,46.5179608 L14.8472471,46.5179608 C14.8608,45.4003137 14.6160941,44.7289804 14.1808941,43.9421569 C13.7103059,43.0934902 12.9475765,42.0600392 12.9475765,40.9245098 C12.9475765,39.5520392 14.0709647,38.441098 15.4571294,38.441098 C15.6227765,38.441098 15.8576941,38.4515294 16.0158118,38.4761176 C17.7219765,38.7436078 18.8205176,39.7532157 19.6728471,41.0213725 L19.6743529,41.0228627 C20.9076706,42.9049804 21.6289882,45.1529412 21.6448,47.5596078 C20.6019765,47.5953725 19.6457412,48.1586667 19.1194353,49.0587451 C18.5780706,49.9886275 18.5780706,51.1353333 19.1194353,52.0652157 C19.6638118,52.9958431 20.6667294,53.5673333 21.7509647,53.5673333 L24.9953882,53.5673333 C24.9908706,53.7409412 24.9577412,53.9056078 24.8990118,54.0538824 C23.9149176,56.5417647 19.9928471,57.6407843 14.5264941,59.9319608 C11.6163765,61.1501961 10.8649412,63.0583922 10.8084706,64.5955294 L10.8092235,64.5977647 C10.8077176,64.6387451 10.8054588,64.6797255 10.8054588,64.7207059 C10.8054588,65.4114118 10.9658353,66.0484706 11.2557176,66.6274118 C11.2715294,64.5940392 12.8677647,62.9332157 14.8879059,62.7849412 C15.4782118,62.7417255 16.1084235,62.7424706 16.7582118,62.7424706 C16.9795765,62.7424706 17.1512471,62.7499216 17.3462588,62.7290588 C19.9484235,62.4667843 20.9136941,60.8238431 21.8887529,59.8604314 C22.8638118,58.8977647 23.9939765,58.4961569 24.1008941,58.4507059 C24.2341647,58.3948235 24.3870118,58.3761961 24.5413647,58.3761961 C25.2416,58.3761961 25.8085647,58.9372549 25.8085647,59.6301961 C25.8085647,59.7143922 25.7995294,59.797098 25.7829647,59.8775686 C25.7739294,59.9297255 25.7520941,59.9781569 25.7302588,60.0243529 C24.9118118,61.7693725 22.6763294,62.540549 18.8431059,64.1469804 C16.8033882,65.0016078 16.2755765,66.3398039 16.2356706,67.4179608 L16.2356706,67.419451 C16.2341647,67.4477647 16.2334118,67.4768235 16.2341647,67.5058824 C16.2341647,67.989451 16.3463529,68.4365098 16.5496471,68.8433333 C16.5609412,67.4172157 17.6798118,66.2518824 19.0968471,66.1483137 C19.5094588,66.1170196 19.9529412,66.1177647 20.4077176,66.1177647 C20.5628235,66.1177647 20.6832941,66.1244706 20.8218353,66.1088235 C22.6447059,65.9247843 23.3223529,64.7728627 24.0060235,64.0963137 C24.6896941,63.4227451 25.4832941,63.141098 25.5578353,63.1083137 C25.6527059,63.0688235 25.7588706,63.0554118 25.8665412,63.0554118 C26.3574588,63.0554118 26.7550118,63.4495686 26.7550118,63.9353725 C26.7550118,63.9949804 26.7497412,64.053098 26.7384471,64.1089804 C26.7188706,64.1864706 26.5667765,65.010549 26.0035765,65.7869412 C25.4403765,66.5648235 24.4020706,67.4127451 24.5150118,69.2240784 C24.5872941,70.3722745 24.8997647,70.8632941 24.4404706,71.5711373 C24.4404706,71.5711373 25.6263529,71.4765098 26.5569882,70.2269804 C26.5720471,70.2068627 26.5953882,70.193451 26.6224941,70.193451 C26.6669176,70.193451 26.7038118,70.2299608 26.7038118,70.2746667 C26.7038118,70.2918039 26.6977882,70.3081961 26.688,70.3216078 C25.4900706,71.9891373 26.9929412,73.6231373 27.3317647,74.1432157 C27.6698353,74.6647843 27.8475294,75.4992941 27.8475294,75.4992941 C27.8475294,75.4992941 28.0274824,74.6647843 28.3663059,74.1432157 C28.7036235,73.6231373 30.208,71.9891373 29.0085647,70.3216078 C28.9987765,70.3081961 28.9942588,70.2918039 28.9942588,70.2746667 C28.9942588,70.2299608 29.0288941,70.193451 29.0755765,70.193451 C29.1011765,70.193451 29.1252706,70.2068627 29.1410824,70.2269804 C30.0694588,71.4765098 31.2568471,71.5711373 31.2568471,71.5711373 C30.7975529,70.8632941 31.1092706,70.3722745 31.1823059,69.2240784 C31.2937412,67.4127451 30.2546824,66.5648235 29.6929882,65.7869412 C29.1297882,65.010549 28.9776941,64.1864706 28.9596235,64.1089804 C28.9483294,64.053098 28.9408,63.9949804 28.9408,63.9353725 C28.9408,63.4495686 29.3406118,63.0554118 29.8315294,63.0554118 C29.9384471,63.0554118 30.0446118,63.0688235 30.1394824,63.1083137 C30.2140235,63.141098 31.0068706,63.4227451 31.6912941,64.0963137 C32.3749647,64.7728627 33.0511059,65.9247843 34.8762353,66.1088235 C35.0140235,66.1244706 35.1344941,66.1177647 35.2888471,66.1177647 C35.7451294,66.1177647 36.1863529,66.1170196 36.6004706,66.1483137 C38.0182588,66.2518824 39.1363765,67.4172157 39.1484235,68.8433333 C39.3517176,68.4365098 39.4631529,67.989451 39.4631529,67.5058824 C39.4631529,67.4768235 39.4631529,67.4477647 39.4624,67.419451 L39.4624,67.4179608 C39.4217412,66.3398039 38.8946824,65.0016078 36.8549647,64.1469804 C33.0194824,62.540549 30.7855059,61.7693725 29.9670588,60.0243529 C29.9437176,59.9781569 29.9241412,59.9297255 29.9128471,59.8775686 C29.8977882,59.797098 29.888,59.7143922 29.888,59.6301961 C29.888,58.9372549 30.4557176,58.3761961 31.1567059,58.3761961 C31.3103059,58.3761961 31.4624,58.3948235 31.5971765,58.4507059 C31.7018353,58.4961569 32.8335059,58.8977647 33.8085647,59.8604314 C34.7836235,60.8238431 35.7481412,62.4667843 38.3503059,62.7290588 C38.5460706,62.7499216 38.7184941,62.7424706 38.9391059,62.7424706 C39.5888941,62.7424706 40.2191059,62.7417255 40.8094118,62.7849412 C42.8303059,62.9332157 44.4250353,64.5940392 44.4408471,66.6274118 C44.7322353,66.0484706 44.8903529,65.4114118 44.8903529,64.7207059 C44.8903529,64.6797255 44.8903529,64.6387451 44.8896,64.5977647 L44.8896,64.5955294 C44.8316235,63.0583922 44.0809412,61.1501961 41.1708235,59.9319608 C35.7044706,57.6407843 31.7824,56.5417647 30.7983059,54.0538824 C30.7395765,53.9056078 30.7079529,53.7409412 30.7011765,53.5673333 L33.8898824,53.5673333 C34.9748706,53.5673333 35.9777882,52.995098 36.5199059,52.0652157 C37.0620235,51.1353333 37.0620235,49.9886275 36.5199059,49.0594902 C36.0041412,48.1758039 35.0742588,47.6154902 34.0525176,47.5618431 C34.0683294,45.1536863 34.7904,42.9057255 36.0237176,41.0228627 L36.0244706,41.0213725 C36.8768,39.7532157 37.9753412,38.7436078 39.6822588,38.4761176 C39.8403765,38.4515294 40.0752941,38.441098 40.2409412,38.441098 C41.6278588,38.441098 42.7504941,39.5520392 42.7504941,40.9245098 C42.7504941,42.0600392 41.9877647,43.0934902 41.5171765,43.9421569 C41.0804706,44.7289804 40.8372706,45.4003137 40.8515765,46.5179608 L40.8508235,46.5179608 C40.8658824,46.839098 40.9163294,47.1512941 40.9984,47.4508235 C40.9984,47.4523137 40.9991529,47.4538039 40.9991529,47.4552941 C41.0729412,47.7727059 41.2039529,48.0841569 41.3726118,48.3821961 C41.4908235,48.6005098 41.6263529,48.8091373 41.7792,49.0036078 L41.7822118,49.0036078 C42.4199529,49.8545098 43.2293647,50.5206275 43.4989176,50.7665098 C43.9296,51.155451 44.4077176,51.7090588 44.6102588,52.3096078 C44.6313412,52.371451 44.6200471,52.4444706 44.5763765,52.4988627 C44.5372235,52.5450588 44.4845176,52.5696471 44.4303059,52.5718824 L44.4325647,52.5711373 C44.2917647,52.5756078 44.1487059,52.5979608 44.0056471,52.6381961 C43.0569412,52.9056863 42.5080471,53.8832549 42.7783529,54.8220784 C42.7888941,54.8585882 42.8009412,54.8943529 42.8129882,54.9301176 C42.8137412,54.9323529 42.816,54.9345882 42.8175059,54.9368235 C42.8272941,54.9666275 42.8378353,54.9949412 42.8506353,55.024 C42.8521412,55.0284706 42.8544,55.0321961 42.8559059,55.0366667 C42.8679529,55.0649804 42.8822588,55.0932941 42.8950588,55.1201176 C42.8958118,55.123098 42.8965647,55.1260784 42.8980706,55.1275686 C43.2745412,55.874902 44.1464471,56.2742745 44.9859765,56.0373333 C45.2532706,55.9613333 45.4912,55.829451 45.6854588,55.6565882 C45.6884706,55.6528627 45.6929882,55.6491373 45.6967529,55.6454118 C45.7148235,55.6297647 45.7313882,55.6141176 45.7479529,55.5977255 C45.7615059,55.5835686 45.7765647,55.5701569 45.7893647,55.556 C45.7961412,55.5500392 45.8014118,55.5433333 45.8074353,55.5381176 C45.8096941,55.5351373 45.8134588,55.5321569 45.8164706,55.5284314 C45.8209882,55.5224706 45.8262588,55.5157647 45.8322824,55.510549 C45.8511059,55.4881961 45.8706824,55.465098 45.8895059,55.442 C45.9934118,55.3153333 46.0822588,55.1745098 46.1447529,55.0336863 C46.1447529,55.0336863 46.1643294,54.9822745 46.1899294,54.895098 C46.2215529,54.8041961 46.2448941,54.7095686 46.2592,54.6141961 C46.3262118,54.2796471 46.3728941,54.0985882 46.3728941,54.0985882 C46.3759059,54.0896471 46.3796706,54.0807059 46.3864471,54.0725098 C46.4173176,54.0352549 46.4737882,54.0292941 46.5129412,54.0605882 C46.5340235,54.0769804 46.5438118,54.1000784 46.5453176,54.1239216 C46.5694118,54.5203137 46.5889882,54.606 46.5889882,54.606 C46.5889882,54.606 46.5965176,54.8280392 46.6755765,55.0918039 L46.6755765,55.0910588 C46.7674353,55.411451 46.9647059,55.6729804 47.2176941,55.8518039 C47.3788235,55.9576078 47.5542588,56.0343529 47.7522824,56.0827843 C48.0941176,56.1669804 48.5044706,56.1677255 49.0255059,56.088 C49.9418353,55.9479216 50.5743059,55.9546275 50.5743059,55.9546275 C50.5743059,55.9546275 50.4395294,55.3421569 50.3928471,54.4271765 C50.3657412,53.9048627 50.2821647,53.5069804 50.1293176,53.1940392 C50.0412235,53.0114902 49.9282824,52.8572549 49.7927529,52.7231373 C49.5638588,52.5130196 49.2649412,52.3751765 48.9291294,52.3513333 L48.9298824,52.3505882 C48.6543059,52.3282353 48.4329412,52.3662353 48.4329412,52.3662353 C48.4329412,52.3662353 48.3440941,52.3647451 47.9457882,52.4221176 C47.9216941,52.4258431 47.8968471,52.4198824 47.8772706,52.4034902 C47.8388706,52.371451 47.8320941,52.3155686 47.8637176,52.2783137 C47.8704941,52.2701176 47.8780235,52.2641569 47.8848,52.2589412 C47.8848,52.2589412 48.0564706,52.1784706 48.3742118,52.045098 C48.4660706,52.0108235 48.5534118,51.969098 48.6369882,51.9214118 C48.7183059,51.8789412 48.7642353,51.8476471 48.7642353,51.8476471 C48.8922353,51.7597255 49.0127059,51.6449804 49.1181176,51.5183137 C49.1376941,51.4959608 49.1557647,51.4728627 49.1723294,51.4490196 C49.1776,51.4423137 49.1843765,51.437098 49.1888941,51.4296471 C49.1911529,51.4266667 49.1934118,51.4229412 49.1956706,51.4192157 C49.2009412,51.4132549 49.2047059,51.4058039 49.2092235,51.399098 C49.2220235,51.3827059 49.2325647,51.3663137 49.2431059,51.3506667 C49.2559059,51.330549 49.2679529,51.3111765 49.2807529,51.2910588 C49.2830118,51.2865882 49.2860235,51.2821176 49.2890353,51.2776471 C49.4192941,51.0533725 49.5036235,50.7978039 49.5232,50.5213725 C49.5872,49.6600392 49.0157176,48.8970588 48.2002824,48.6839608 C48.1980235,48.6832157 48.1957647,48.6824706 48.1927529,48.6824706 C48.1633882,48.6742745 48.1325176,48.6675686 48.1024,48.6608627 C48.0978824,48.6601176 48.0926118,48.6593725 48.0880941,48.6586275 C48.0579765,48.6526667 48.0271059,48.647451 47.9962353,48.6429804 C47.9932235,48.6422353 47.9894588,48.6422353 47.9872,48.6414902 C47.9495529,48.6370196 47.9126588,48.632549 47.8742588,48.6295686 C46.8894118,48.5580392 46.0333176,49.2882353 45.9617882,50.2620784 C45.9497412,50.4081176 45.9587765,50.5504314 45.9813647,50.6890196 L45.9813647,50.6860392 C45.9904,50.7389412 45.9768471,50.7963137 45.9392,50.8417647 C45.8947765,50.896902 45.8247529,50.9214902 45.7577412,50.9132941 C45.1237647,50.8395294 44.3843765,50.4677255 43.9318588,50.1033725 C43.8279529,50.0199216 43.6118588,49.8314118 43.6118588,49.8314118 L42.9296941,49.2085098 L42.9327059,49.2092549 C42.4764235,48.7629412 42.1925647,48.1437647 42.1925647,47.4582745 C42.1925647,46.5507451 42.688,45.7579608 43.4281412,45.3317647 C44.6607059,44.5829412 45.9813647,44.2528627 48.0873412,43.7864314 C49.0194824,43.5792941 49.8853647,43.2343137 50.7264,42.8550588 C53.6591059,41.5325098 55.6973176,38.6050196 55.6973176,35.2066275 C55.6973176,30.566902 51.8979765,26.8063922 47.2086588,26.8063922" id="Fill-18"></path>
                        </g>
                    </g>
                </g>
            </g>
        </g>
    </g>
</svg>