<svg id="1d58c54d-8b63-45a4-be78-e387b8569007" data-name="svg2759" xmlns="http://www.w3.org/2000/svg" viewBox="0 0 23.19178 23.18966"><title>by-nc-sa</title><g id="c3dbecf4-4860-438a-8463-2705c93533a6" data-name="layer1"><g id="1b9fe7e7-fe82-4774-bb12-0378fa2a2908" data-name="g117"><g id="1448f266-66e6-4d5b-8d3b-d62ce8710f8c" data-name="g126"><circle id="010330fc-6b87-473f-93db-ef2b06b2c505" data-name="circle128" cx="11.6085" cy="11.83136" r="10.73835" style="fill:#fff"/><g id="2617e931-ca12-4266-b80b-10dd2201788e" data-name="g130"><path id="178122aa-8734-4f44-aae1-a205952b730e" data-name="path132" d="M54.87141,12.11666a0.74932,0.74932,0,0,0-.74922-0.74914H49.37941a0.74932,0.74932,0,0,0-.74922.74914V16.8594H49.953v5.61608h3.59469V16.8594h1.32375V12.11666h0Z" transform="translate(-40.15492 -3.39246)"/><circle id="733182bf-2f45-4077-92f8-4f3f55850f2f" data-name="circle134" cx="11.59589" cy="5.72863" r="1.62208"/></g><path id="69f08fc0-210a-4746-9c7e-200da6a24b1e" data-name="path136" d="M51.73576,3.39246a11.05517,11.05517,0,0,0-8.156,3.36237,11.33923,11.33923,0,0,0-3.42486,8.23222,11.15048,11.15048,0,0,0,3.42486,8.175,11.14934,11.14934,0,0,0,8.156,3.4201,11.45293,11.45293,0,0,0,8.30253-3.4497,10.9984,10.9984,0,0,0,3.3084-8.14537,11.18677,11.18677,0,0,0-3.36663-8.23223A11.21913,11.21913,0,0,0,51.73576,3.39246Zm0.03009,2.0863A9.08245,9.08245,0,0,1,58.47,8.2623,9.09142,9.09142,0,0,1,61.25723,14.987a8.84513,8.84513,0,0,1-2.729,6.63837,9.30637,9.30637,0,0,1-6.76237,2.8403A9.1611,9.1611,0,0,1,45.05977,21.654a9.10381,9.10381,0,0,1-2.81539-6.667,9.24784,9.24784,0,0,1,2.8445-6.72474A8.99328,8.99328,0,0,1,51.76585,5.47877Z" transform="translate(-40.15492 -3.39246)"/></g></g></g></svg>