<svg id="52e1d3b2-c013-497a-b1a9-04eda87260b0" data-name="svg2759" xmlns="http://www.w3.org/2000/svg" viewBox="0 0 23.19178 23.18966"><title>cc-by</title><g id="e338fd8d-1222-4a08-b30e-d5f4dd52275a" data-name="layer1"><g id="1a5e313f-3cbb-4a09-8223-db3abd5c204e" data-name="g117"><g id="b0964146-d047-4213-991f-1a7d77752d2a" data-name="g126"><g id="549ef655-e697-4e7a-a7eb-47e46fe8e15c" data-name="g130"><path id="b5a3dbff-d2aa-44b9-90de-a85f9bbe609b" data-name="path132" d="M54.87141,12.11666a0.74932,0.74932,0,0,0-.74922-0.74914H49.37941a0.74932,0.74932,0,0,0-.74922.74914V16.8594H49.953v5.61608h3.59469V16.8594h1.32375V12.11666h0Z" transform="translate(-40.15492 -3.39246)"/><circle id="00132ea4-e142-49db-a648-b5e674445065" data-name="circle134" cx="11.59589" cy="5.72863" r="1.62208"/></g><path id="04ab2f3f-16e7-441c-9934-b371dffee436" data-name="path136" d="M51.73576,3.39246a11.05517,11.05517,0,0,0-8.156,3.36237,11.33923,11.33923,0,0,0-3.42486,8.23222,11.15048,11.15048,0,0,0,3.42486,8.175,11.14934,11.14934,0,0,0,8.156,3.4201,11.45293,11.45293,0,0,0,8.30253-3.4497,10.9984,10.9984,0,0,0,3.3084-8.14537,11.18677,11.18677,0,0,0-3.36663-8.23223A11.21913,11.21913,0,0,0,51.73576,3.39246Zm0.03009,2.0863A9.08245,9.08245,0,0,1,58.47,8.2623,9.09142,9.09142,0,0,1,61.25723,14.987a8.84513,8.84513,0,0,1-2.729,6.63837,9.30637,9.30637,0,0,1-6.76237,2.8403A9.1611,9.1611,0,0,1,45.05977,21.654a9.10381,9.10381,0,0,1-2.81539-6.667,9.24784,9.24784,0,0,1,2.8445-6.72474A8.99328,8.99328,0,0,1,51.76585,5.47877Z" transform="translate(-40.15492 -3.39246)"/></g></g></g></svg>