<svg id="f932687f-e2af-4891-bca8-f6894c09e2de" data-name="svg2759" xmlns="http://www.w3.org/2000/svg" viewBox="0 0 23.19273 23.19011"><title>cc-nc</title><g id="d1fbbf56-96fa-4fb8-8f19-ee2fc77a4c95" data-name="layer1"><g id="1b0a2faa-9c51-4bf0-8957-84179d8e9715" data-name="g117"><g id="8a6d4575-272d-4281-b59d-52b8949c9c08" data-name="g6361"><path id="7ec4af9b-5bed-484b-baca-58e9da68496d" data-name="path6365" d="M77.82731,3.38567A11.48987,11.48987,0,0,1,89.43824,14.98072a11.00561,11.00561,0,0,1-3.3084,8.14588,11.456,11.456,0,0,1-8.30254,3.44918,11.14292,11.14292,0,0,1-8.156-3.42057,11.14728,11.14728,0,0,1-3.42582-8.1745,11.34225,11.34225,0,0,1,3.42582-8.23317A11.05684,11.05684,0,0,1,77.82731,3.38567Zm-8.97213,8.48015a9.25976,9.25976,0,0,0-.5192,3.11491,9.10462,9.10462,0,0,0,2.81535,6.667,9.16245,9.16245,0,0,0,6.70514,2.8117,9.30546,9.30546,0,0,0,6.76329-2.8408,8.95134,8.95134,0,0,0,1.58384-2.0281L81.8325,17.644a3.36152,3.36152,0,0,1-3.19188,2.58071v1.78794H77.30908V20.22468a5.51237,5.51237,0,0,1-3.51993-1.3886l1.5974-1.60989a3.49611,3.49611,0,0,0,2.5883,1.04851,1.22,1.22,0,0,0,1.43532-1.15282,0.86649,0.86649,0,0,0-.31344-0.69626l-1.1054-.49247-1.3771-.6128c-0.68128-.30322-1.2578-0.55943-1.83621-0.81754ZM77.85645,5.473a8.98876,8.98876,0,0,0-6.676,2.783,10.7016,10.7016,0,0,0-1.29175,1.5662l4.4332,1.97326A3.16576,3.16576,0,0,1,77.30908,9.7368V7.9489h1.33154V9.7368A5.00418,5.00418,0,0,1,81.555,10.80034l-1.52367,1.56572a3.52745,3.52745,0,0,0-1.9827-.67926,1.16411,1.16411,0,0,0-1.38976.9,0.46816,0.46816,0,0,0,.10385.29452l1.4829,0.66034L79.24907,13.989c0.64247,0.28628,1.25488.558,1.86236,0.82869L87.05376,17.463a10.13446,10.13446,0,0,0,.294-2.48225A9.0945,9.0945,0,0,0,84.5625,8.256,9.08588,9.08588,0,0,0,77.85645,5.473Z" transform="translate(-66.24552 -3.38567)"/></g></g></g></svg>