<svg id="8d240d29-15ce-4fa0-b0d7-7450b96a52d2" data-name="svg2759" xmlns="http://www.w3.org/2000/svg" viewBox="0 0 23.19276 23.19016"><title>cc-sa</title><g id="8761f288-6eb6-4812-98c4-d4f246bf0761" data-name="layer1"><g id="1d517b1d-585e-4c87-b024-acb459edc98e" data-name="g117"><g id="c163bf2e-34f3-4d8d-93fa-01fbff7ce651" data-name="g6332"><g id="1857a330-a909-4c68-95d8-050feca56d27" data-name="g6336"><path id="a48d1b59-4d66-4d09-8768-63f50360b586" data-name="path6338" d="M103.9189,3.38566a11.0554,11.0554,0,0,0-8.156,3.36189,11.34258,11.34258,0,0,0-3.4258,8.2332,11.14972,11.14972,0,0,0,3.4258,8.17448,11.143,11.143,0,0,0,8.156,3.4206,11.45588,11.45588,0,0,0,8.30156-3.44922,11.00257,11.00257,0,0,0,3.30942-8.14586A11.49,11.49,0,0,0,103.9189,3.38566ZM103.948,5.47295A9.08377,9.08377,0,0,1,110.65313,8.256a9.09162,9.09162,0,0,1,2.78627,6.72472,8.84752,8.84752,0,0,1-2.729,6.63887,9.30613,9.30613,0,0,1-6.76236,2.83982,9.16248,9.16248,0,0,1-6.70512-2.81169,9.10465,9.10465,0,0,1-2.81538-6.667A9.24325,9.24325,0,0,1,97.272,8.256,8.98734,8.98734,0,0,1,103.948,5.47295Z" transform="translate(-92.33711 -3.38566)"/><path id="13732992-391b-457c-89a5-d9001b5e21a6" data-name="path6340" d="M98.77921,13.34468a4.93948,4.93948,0,0,1,5.09025-4.47732c3.7014,0,5.95777,2.686,5.95777,6.26766a5.898,5.898,0,0,1-6.01607,6.20948,4.96811,4.96811,0,0,1-5.11929-4.5341H101.613c0.08734,1.55942,1.0996,2.10863,2.54562,2.10863,1.64792,0,2.71833-1.53076,2.71833-3.87035,0-2.456-.92484-3.75489-2.66109-3.75489a2.28782,2.28782,0,0,0-2.60286,2.0509l0.84917-.00584-2.29906,2.29982L97.864,13.33884Z" transform="translate(-92.33711 -3.38566)"/></g></g></g></g></svg>