<?xml version="1.0" encoding="utf-8"?>
<!-- Generator: Adobe Illustrator 19.2.0, SVG Export Plug-In . SVG Version: 6.00 Build 0)  -->
<svg version="1.1" id="Livello_1" xmlns="http://www.w3.org/2000/svg" xmlns:xlink="http://www.w3.org/1999/xlink" x="0px" y="0px"
	 viewBox="0 0 24 24" style="enable-background:new 0 0 24 24;" xml:space="preserve">
<style type="text/css">
	.st0{fill:#FFFFFF;}
</style>
<title>Group 5 Copy</title>
<desc>Created with Sketch.</desc>
<g id="ARTICOLO-GENERICO">
	<g id="Group-5-Copy" transform="translate(-1.000000, -1.000000)">
		<path id="Fill-3" class="st0" d="M19.9,21.4L4.7,6.1C4.1,5.5,3.9,4.8,4.3,4.4l0,0C4.7,4,5.4,4.1,6,4.7L21.3,20
			c0.6,0.6,0.8,1.4,0.4,1.8l0,0C21.3,22.1,20.6,22,19.9,21.4"/>
		<path id="Fill-5" class="st0" d="M21.3,6.1L6,21.4c-0.6,0.6-1.4,0.8-1.8,0.4l0,0c-0.4-0.5-0.2-1.3,0.4-1.9L19.9,4.7
			c0.6-0.6,1.4-0.8,1.8-0.4l0,0C22.1,4.8,21.9,5.5,21.3,6.1"/>
	</g>
</g>
</svg>
