<?xml version="1.0" encoding="UTF-8"?>
<svg width="32px" height="32px" viewBox="0 0 32 32" version="1.1" xmlns="http://www.w3.org/2000/svg" xmlns:xlink="http://www.w3.org/1999/xlink">
    <defs></defs>
    <g id="HOME" stroke="none" stroke-width="1" fill="none" fill-rule="evenodd">
        <g id="Tablet_Home" transform="translate(-48.000000, -3213.000000)">
            <g id="Footer-tablet" transform="translate(0.000000, 2581.000000)">
                <g id="Footer">
                    <g id="Seguici-su" transform="translate(32.000000, 554.000000)">
                        <g id="Facebook" transform="translate(16.000000, 78.000000)">
                            <path d="M31.1247265,16 C31.1247265,24.837 24.1566783,32 15.5623632,32 C6.96804814,32 0,24.837 0,16 C0,7.164 6.96804814,0 15.5623632,0 C24.1566783,0 31.1247265,7.164 31.1247265,16" id="Fill-1" fill="#65DBDE"></path>
                            <path d="M19.6025473,8.1157 L19.6025473,10.6537 L18.1338492,10.6537 C17.5979204,10.6537 17.2370681,10.7697 17.049347,11.0007 C16.8625987,11.2307 16.7682519,11.5767 16.7682519,12.0387 L16.7682519,13.8557 L19.5091731,13.8557 L19.1444302,16.7017 L16.7682519,16.7017 L16.7682519,23.9997 L13.907695,23.9997 L13.907695,16.7017 L11.5217902,16.7017 L11.5217902,13.8557 L13.907695,13.8557 L13.907695,11.7607 C13.907695,10.5677 14.230614,9.6427 14.8803427,8.9857 C15.528126,8.3287 16.3908646,7.9997 17.4705035,7.9997 C18.3867376,7.9997 19.0987158,8.0387 19.6025473,8.1157" id="Fill-3" fill="#30373D"></path>
                        </g>
                    </g>
                </g>
            </g>
        </g>
    </g>
</svg>