<?xml version="1.0" encoding="utf-8"?>
<!-- Generator: Adobe Illustrator 19.2.0, SVG Export Plug-In . SVG Version: 6.00 Build 0)  -->
<svg version="1.1" id="_x31_4a368c7-c886-4c4b-a45d-0fc5161e2e57"
	 xmlns="http://www.w3.org/2000/svg" xmlns:xlink="http://www.w3.org/1999/xlink" x="0px" y="0px" viewBox="0 0 22 24"
	 style="enable-background:new 0 0 22 24;" xml:space="preserve">
<style type="text/css">
	.st0{fill:#131412;}
	.st1{fill:none;}
</style>
<title>pdf</title>
<g id="HOME_1_">
	<g id="Group-14_1_" transform="translate(-5.000000, -4.000000)">
		<g id="Group-9_1_" transform="translate(5.000000, 4.000000)">
			<path id="Fill-17_1_" class="st0" d="M2.8,3.4h12l0,14h-12V3.4z M16.8,17.4v-14c0-1.1-0.9-2-2-2h-12c-1.1,0-2,0.9-2,2v14
				c0,1.1,0.9,2,2,2h12C16,19.4,16.8,18.5,16.8,17.4L16.8,17.4z"/>
			<path id="Fill-19_1_" class="st0" d="M18.9,5.4L18.9,5.4l0,2h0l0,14h-2v0h-12c0,1.1,0.9,2,2,2h12c1.1,0,2-0.9,2-2v-14
				C20.9,6.3,20,5.4,18.9,5.4"/>
		</g>
		<rect id="Rectangle-5_1_" y="0.8" class="st1" width="32" height="32"/>
	</g>
</g>
</svg>
