<?xml version="1.0" encoding="UTF-8"?>
<svg width="21px" height="23px" viewBox="0 0 21 23" version="1.1" xmlns="http://www.w3.org/2000/svg" xmlns:xlink="http://www.w3.org/1999/xlink">
    <!-- Generator: Sketch 46.2 (44496) - http://www.bohemiancoding.com/sketch -->
    <title>Group</title>
    <desc>Created with Sketch.</desc>
    <defs></defs>
    <g id="Page-1" stroke="none" stroke-width="1" fill="none" fill-rule="evenodd">
        <g id="Group" fill="#5A6772">
            <g id="file-jpg" fill-rule="nonzero">
                <g id="file-txt">
                    <path d="M2.8,2.5 L14.8,2.5 L14.8,16.5 L2.8,16.5 C2.8,16.5 2.8,2.5 2.8,2.5 Z M16.8,16.5 L16.8,2.5 C16.8,1.4 15.9,0.5 14.8,0.5 L2.8,0.5 C1.7,0.5 0.8,1.4 0.8,2.5 L0.8,16.5 C0.8,17.6 1.7,18.5 2.8,18.5 L14.8,18.5 C16,18.5 16.8,17.6 16.8,16.5 L16.8,16.5 Z" id="Fill-17"></path>
                    <path d="M18.9,4.4 L18.9,4.4 L18.9,6.4 L18.9,6.4 L18.9,20.4 L16.9,20.4 L16.9,20.4 L4.9,20.4 C4.9,21.5 5.8,22.4 6.9,22.4 L18.9,22.4 C20,22.4 20.9,21.5 20.9,20.4 L20.9,6.4 C20.9,5.3 20,4.4 18.9,4.4" id="Fill-19"></path>
                </g>
            </g>
            <path d="M5.42,10.812 L4.748,10.812 L4.748,12 L3.92,12 L3.92,7.92 L5.42,7.92 C6.38800484,7.92 6.872,8.39199528 6.872,9.336 C6.872,9.81200238 6.74900123,10.1769987 6.503,10.431 C6.25699877,10.6850013 5.89600238,10.812 5.42,10.812 Z M4.748,10.104 L5.414,10.104 C5.82600206,10.104 6.032,9.84800256 6.032,9.336 C6.032,9.08399874 5.9820005,8.90300055 5.882,8.793 C5.7819995,8.68299945 5.62600106,8.628 5.414,8.628 L4.748,8.628 L4.748,10.104 Z M8.828,12 L7.454,12 L7.454,7.92 L8.828,7.92 C9.18000176,7.92 9.46999886,7.95699963 9.698,8.031 C9.92600114,8.10500037 10.1029994,8.22699915 10.229,8.397 C10.3550006,8.56700085 10.4419998,8.76699885 10.49,8.997 C10.5380002,9.22700115 10.562,9.52599816 10.562,9.894 C10.562,10.2620018 10.5400002,10.5669988 10.496,10.809 C10.4519998,11.0510012 10.3690006,11.266999 10.247,11.457 C10.1249994,11.6470009 9.94800116,11.7849996 9.716,11.871 C9.48399884,11.9570004 9.1880018,12 8.828,12 Z M9.698,10.38 C9.70600004,10.2519994 9.71,10.0750011 9.71,9.849 C9.71,9.62299887 9.70200008,9.44200068 9.686,9.306 C9.66999992,9.16999932 9.6320003,9.04600056 9.572,8.934 C9.5119997,8.82199944 9.42300059,8.74500021 9.305,8.703 C9.18699941,8.66099979 9.028001,8.64 8.828,8.64 L8.282,8.64 L8.282,11.28 L8.828,11.28 C9.1280015,11.28 9.34599932,11.2040008 9.482,11.052 C9.59800058,10.9279994 9.66999986,10.7040016 9.698,10.38 Z M11.282,12 L11.282,7.92 L13.886,7.92 L13.886,8.64 L12.11,8.64 L12.11,9.84 L13.562,9.84 L13.562,10.56 L12.11,10.56 L12.11,12 L11.282,12 Z" id="PDF"></path>
        </g>
    </g>
</svg>