<?xml version="1.0" encoding="UTF-8"?>
<svg width="21px" height="23px" viewBox="0 0 21 23" version="1.1" xmlns="http://www.w3.org/2000/svg" xmlns:xlink="http://www.w3.org/1999/xlink">
    <!-- Generator: Sketch 46.2 (44496) - http://www.bohemiancoding.com/sketch -->
    <title>Group</title>
    <desc>Created with Sketch.</desc>
    <defs></defs>
    <g id="Page-1" stroke="none" stroke-width="1" fill="none" fill-rule="evenodd">
        <g id="Group" fill="#5A6772">
            <g id="file-txt" fill-rule="nonzero">
                <path d="M2.8,2.5 L14.8,2.5 L14.8,16.5 L2.8,16.5 C2.8,16.5 2.8,2.5 2.8,2.5 Z M16.8,16.5 L16.8,2.5 C16.8,1.4 15.9,0.5 14.8,0.5 L2.8,0.5 C1.7,0.5 0.8,1.4 0.8,2.5 L0.8,16.5 C0.8,17.6 1.7,18.5 2.8,18.5 L14.8,18.5 C16,18.5 16.8,17.6 16.8,16.5 L16.8,16.5 Z" id="Fill-17"></path>
                <path d="M18.9,4.4 L18.9,4.4 L18.9,6.4 L18.9,6.4 L18.9,20.4 L16.9,20.4 L16.9,20.4 L4.9,20.4 C4.9,21.5 5.8,22.4 6.9,22.4 L18.9,22.4 C20,22.4 20.9,21.5 20.9,20.4 L20.9,6.4 C20.9,5.3 20,4.4 18.9,4.4" id="Fill-19"></path>
            </g>
            <text id="JPG" font-family="TitilliumWeb-Bold, Titillium Web" font-size="6" font-weight="bold">
                <tspan x="4.494" y="12">JPG</tspan>
            </text>
        </g>
    </g>
</svg>