<?xml version="1.0" encoding="utf-8"?>
<!-- Generator: Adobe Illustrator 19.2.0, SVG Export Plug-In . SVG Version: 6.00 Build 0)  -->
<svg version="1.1" id="Livello_1" xmlns="http://www.w3.org/2000/svg" xmlns:xlink="http://www.w3.org/1999/xlink" x="0px" y="0px"
	 viewBox="0 0 32 32" style="enable-background:new 0 0 32 32;" xml:space="preserve">
<style type="text/css">
	.st0{fill:#65DBDE;}
	.st1{fill:#30373D;}
</style>
<path id="Fill-1" class="st0" d="M16,32C7.2,32,0,24.8,0,16C0,7.2,7.2,0,16,0s16,7.2,16,16C32,24.8,24.8,32,16,32z"/>
<g id="HOME">
	<g id="Desktop_Home" transform="translate(-237.000000, -3659.000000)">
		<g id="Footer-Desktop" transform="translate(0.000000, 3046.000000)">
			<g id="Footer">
				<g id="footer">
					<g id="seguici-su-copy" transform="translate(120.000000, 537.000000)">
						
							<g id="Instagram" transform="translate(128.000000, 87.000000) scale(1, -1) translate(-128.000000, -87.000000) translate(112.000000, 71.000000)">
							<path class="st1" d="M21,0.3c2.9,0,3.3,0,4.4,0.1c1.1,0.1,1.9,0.2,2.6,0.5c0.7,0.3,1.3,0.6,1.9,1.2c0.6,0.6,1,1.2,1.2,1.9
								c0.3,0.7,0.4,1.5,0.5,2.6c0.1,1.1,0.1,1.5,0.1,4.4c0,2.9,0,3.3-0.1,4.4c-0.1,1.1-0.2,1.9-0.5,2.6c-0.3,0.7-0.6,1.3-1.2,1.9
								c-0.6,0.6-1.2,1-1.9,1.2c-0.7,0.3-1.5,0.4-2.6,0.5c-1.1,0.1-1.5,0.1-4.4,0.1c-2.9,0-3.3,0-4.4-0.1c-1.1-0.1-1.9-0.2-2.6-0.5
								c-0.7-0.3-1.3-0.6-1.9-1.2c-0.6-0.6-1-1.2-1.2-1.9c-0.3-0.7-0.4-1.5-0.5-2.6c-0.1-1.1-0.1-1.5-0.1-4.4c0-2.9,0-3.3,0.1-4.4
								c0.1-1.1,0.2-1.9,0.5-2.6c0.3-0.7,0.6-1.3,1.2-1.9c0.6-0.6,1.2-1,1.9-1.2c0.7-0.3,1.5-0.4,2.6-0.5C17.7,0.3,18.1,0.3,21,0.3z
								 M21,2.3c-2.8,0-3.2,0-4.3,0.1c-1,0-1.6,0.2-2,0.4c-0.5,0.2-0.9,0.4-1.2,0.8c-0.4,0.4-0.6,0.7-0.8,1.2
								c-0.1,0.4-0.3,0.9-0.4,2c-0.1,1.1-0.1,1.5-0.1,4.3c0,2.8,0,3.2,0.1,4.3c0,1,0.2,1.6,0.4,2c0.2,0.5,0.4,0.9,0.8,1.2
								c0.4,0.4,0.7,0.6,1.2,0.8c0.4,0.1,0.9,0.3,2,0.4c1.1,0.1,1.5,0.1,4.3,0.1c2.8,0,3.2,0,4.3-0.1c1,0,1.6-0.2,2-0.4
								c0.5-0.2,0.9-0.4,1.2-0.8c0.4-0.4,0.6-0.7,0.8-1.2c0.1-0.4,0.3-0.9,0.4-2c0.1-1.1,0.1-1.5,0.1-4.3c0-2.8,0-3.2-0.1-4.3
								c0-1-0.2-1.6-0.4-2c-0.2-0.5-0.4-0.9-0.8-1.2c-0.4-0.4-0.7-0.6-1.2-0.8c-0.4-0.1-0.9-0.3-2-0.4C24.2,2.3,23.8,2.3,21,2.3z
								 M21,5.5c3,0,5.5,2.5,5.5,5.5c0,3-2.5,5.5-5.5,5.5c-3,0-5.5-2.5-5.5-5.5C15.5,8,18,5.5,21,5.5z M21,14.6c2,0,3.6-1.6,3.6-3.6
								c0-2-1.6-3.6-3.6-3.6c-2,0-3.6,1.6-3.6,3.6C17.4,13,19,14.6,21,14.6z M28,5.3c0,0.7-0.6,1.3-1.3,1.3c-0.7,0-1.3-0.6-1.3-1.3
								S26,4,26.7,4C27.4,4,28,4.6,28,5.3z"/>
						</g>
					</g>
				</g>
			</g>
		</g>
	</g>
</g>
</svg>
