<?xml version="1.0" encoding="utf-8"?>
<!-- Generator: Adobe Illustrator 19.2.0, SVG Export Plug-In . SVG Version: 6.00 Build 0)  -->
<svg version="1.1" id="Livello_1" xmlns="http://www.w3.org/2000/svg" xmlns:xlink="http://www.w3.org/1999/xlink" x="0px" y="0px"
	 viewBox="0 0 32 30.3" style="enable-background:new 0 0 32 30.3;" xml:space="preserve">
<style type="text/css">
	.st0{fill:#FFFFFF;}
</style>
<g>
	<path class="st0" d="M0.7,30.2v-6.8H3l1.2,5l1.2-5h2.3v6.8H6.4v-5.3H6.2l-1.3,5H3.5l-1.3-5H2v5.3H0.7z"/>
	<path class="st0" d="M10.7,30.2v-6.8h4.4v1.2h-3v1.6h2.4v1.2h-2.4V29h3v1.2H10.7z"/>
	<path class="st0" d="M17.8,30.2v-6.8h2.3l1.6,5.6h0.1v-5.6h1.4v6.8H21l-1.7-5.6h-0.1v5.6H17.8z"/>
	<path class="st0" d="M27.5,27.9c0,0.8,0.4,1.2,1.2,1.2s1.2-0.4,1.2-1.2v-4.5h1.4v4.5c0,0.8-0.2,1.4-0.6,1.8s-1.1,0.6-1.9,0.6
		s-1.5-0.2-1.9-0.6s-0.6-1-0.6-1.8v-4.5h1.4v4.5H27.5z"/>
</g>
</svg>
