<?xml version="1.0" encoding="UTF-8"?>
<svg width="13px" height="21px" viewBox="0 0 13 21" version="1.1" xmlns="http://www.w3.org/2000/svg" xmlns:xlink="http://www.w3.org/1999/xlink">
    <!-- Generator: Sketch 46.2 (44496) - http://www.bohemiancoding.com/sketch -->
    <title>next-month</title>
    <desc>Created with Sketch.</desc>
    <defs></defs>
    <g id="Page-1" stroke="none" stroke-width="1" fill="none" fill-rule="evenodd">
        <g id="next-month" transform="translate(-1.000000, -5.000000)">
            <rect id="Rectangle" x="0" y="0" width="15" height="30"></rect>
            <path d="M13.761583,15.6785714 L4.4507722,24.9893822 C4.29182671,25.1483277 4.1036047,25.2277992 3.88610039,25.2277992 C3.66859607,25.2277992 3.48037406,25.1483277 3.32142857,24.9893822 L1.23841699,22.9063707 C1.0794715,22.7474252 1,22.5592032 1,22.3416988 C1,22.1241945 1.0794715,21.9359725 1.23841699,21.777027 L7.9015444,15.1138996 L1.23841699,8.4507722 C1.0794715,8.29182674 1,8.10360469 1,7.88610039 C1,7.66859608 1.0794715,7.48037403 1.23841699,7.32142857 L3.32142857,5.23841699 C3.48037406,5.07947153 3.66859607,5 3.88610039,5 C4.1036047,5 4.29182671,5.07947153 4.4507722,5.23841699 L13.761583,14.5492278 C13.9205285,14.7081733 14,14.8963953 14,15.1138996 C14,15.3314039 13.9205285,15.5196259 13.761583,15.6785714 Z" id="ï”" fill="#5A6772" fill-rule="nonzero"></path>
        </g>
    </g>
</svg>