<?xml version="1.0" encoding="utf-8"?>
<!-- Generator: Adobe Illustrator 19.2.0, SVG Export Plug-In . SVG Version: 6.00 Build 0)  -->
<svg version="1.1" id="Livello_1" xmlns="http://www.w3.org/2000/svg" xmlns:xlink="http://www.w3.org/1999/xlink" x="0px" y="0px"
	 viewBox="0 0 32 32" style="enable-background:new 0 0 32 32;" xml:space="preserve">
<style type="text/css">
	.st0{filter:url(#Adobe_OpacityMaskFilter);}
	.st1{fill:#FFFFFF;}
	.st2{mask:url(#mask-2_1_);fill:#FFFFFF;}
</style>
<g id="MEDIA">
	<g id="Camera-icon" transform="translate(-4.000000, -6.000000)">
		<g id="Mask">
		</g>
		<defs>
			<filter id="Adobe_OpacityMaskFilter" filterUnits="userSpaceOnUse" x="8" y="11.8" width="24" height="20">
				<feColorMatrix  type="matrix" values="1 0 0 0 0  0 1 0 0 0  0 0 1 0 0  0 0 0 1 0"/>
			</filter>
		</defs>
		<mask maskUnits="userSpaceOnUse" x="8" y="11.8" width="24" height="20" id="mask-2_1_">
			<g class="st0">
				<rect id="path-1_1_" x="4" y="5.8" class="st1" width="32" height="32"/>
			</g>
		</mask>
		<path id="Combined-Shape" class="st2" d="M29,13.8c1.7,0,3,1.3,3,3v12.1c0,1.7-1.3,2.9-3,2.9H11c-1.7,0-3-1.3-3-2.9V16.8
			c0-1.7,1.3-3,3-3v-2h2v2v2h-2c-0.6,0-1,0.4-1,1v12.1c0,0.6,0.4,0.9,1,0.9h18c0.6,0,1-0.4,1-0.9V16.8c0-0.6-0.4-1-1-1H15v-2H29z
			 M15,19.8c-0.8,0-1.5-0.7-1.5-1.5s0.7-1.5,1.5-1.5s1.5,0.7,1.5,1.5S15.8,19.8,15,19.8z M28,22.8c0,3-2.5,5.5-5.5,5.5
			c-3,0-5.5-2.5-5.5-5.5s2.5-5.5,5.5-5.5C25.5,17.2,28,19.7,28,22.8z M19,22.8c0,1.9,1.6,3.5,3.5,3.5s3.5-1.6,3.5-3.5
			s-1.6-3.5-3.5-3.5S19,20.8,19,22.8z"/>
	</g>
</g>
</svg>
