<?xml version="1.0" encoding="UTF-8"?>
<svg width="33px" height="33px" viewBox="0 0 33 33" version="1.1" xmlns="http://www.w3.org/2000/svg" xmlns:xlink="http://www.w3.org/1999/xlink">
    <!-- Generator: Sketch 46.2 (44496) - http://www.bohemiancoding.com/sketch -->
    <title></title>
    <desc>Created with Sketch.</desc>
    <defs></defs>
    <g id="Page-1" stroke="none" stroke-width="1" fill="none" fill-rule="evenodd">
        <path d="M9.01298701,28.2077922 C9.01298701,29.4199195 8.58874883,30.4502122 7.74025974,31.2987013 C6.89177065,32.1471904 5.86147792,32.5714286 4.64935065,32.5714286 C3.43722338,32.5714286 2.40693065,32.1471904 1.55844156,31.2987013 C0.709952468,30.4502122 0.285714286,29.4199195 0.285714286,28.2077922 C0.285714286,26.9956649 0.709952468,25.9653722 1.55844156,25.1168831 C2.40693065,24.268394 3.43722338,23.8441558 4.64935065,23.8441558 C5.86147792,23.8441558 6.89177065,24.268394 7.74025974,25.1168831 C8.58874883,25.9653722 9.01298701,26.9956649 9.01298701,28.2077922 Z M20.6493506,31.0032468 C20.6796538,31.4274913 20.5508672,31.791124 20.262987,32.0941558 C19.9902584,32.4123393 19.6342013,32.5714286 19.1948052,32.5714286 L16.1266234,32.5714286 C15.7478336,32.5714286 15.4220793,32.4464298 15.1493506,32.1964286 C14.876622,31.9464273 14.7251084,31.6320365 14.6948052,31.2532468 C14.3614702,27.7835324 12.9637569,24.817653 10.5016234,22.3555195 C8.03948985,19.893386 5.07361042,18.4956727 1.6038961,18.1623377 C1.22510633,18.1320345 0.910715536,17.9805208 0.660714286,17.7077922 C0.410713036,17.4350636 0.285714286,17.1093093 0.285714286,16.7305195 L0.285714286,13.6623377 C0.285714286,13.2229415 0.444803604,12.8668845 0.762987013,12.5941558 C1.02056406,12.3365788 1.34631838,12.2077922 1.74025974,12.2077922 L1.8538961,12.2077922 C4.27815065,12.4047629 6.59630929,13.0146053 8.80844156,14.0373377 C11.0205738,15.06007 12.9826754,16.4350563 14.6948052,18.1623377 C16.4220866,19.8744674 17.7970728,21.836569 18.8198052,24.0487013 C19.8425376,26.2608336 20.45238,28.5789922 20.6493506,31.0032468 Z M32.2857143,31.0487013 C32.3160175,31.4577943 32.1796552,31.8138513 31.8766234,32.1168831 C31.6038947,32.4199149 31.2554134,32.5714286 30.8311688,32.5714286 L27.5811688,32.5714286 C27.1872275,32.5714286 26.8501096,32.4388541 26.5698052,32.1737013 C26.2895008,31.9085485 26.141775,31.586582 26.1266234,31.2077922 C25.9448043,27.9502002 25.1796604,24.8555341 23.8311688,21.9237013 C22.4826772,18.9918685 20.7289069,16.4464394 18.5698052,14.2873377 C16.4107035,12.128236 13.8652744,10.3744656 10.9334416,9.02597403 C8.00160872,7.67748244 4.90694269,6.90476289 1.64935065,6.70779221 C1.27056088,6.69264062 0.948594399,6.54491482 0.683441558,6.26461039 C0.418288718,5.98430596 0.285714286,5.6547638 0.285714286,5.27597403 L0.285714286,2.02597403 C0.285714286,1.60172948 0.437227922,1.25324812 0.74025974,0.980519481 C1.01298838,0.707790844 1.34631838,0.571428571 1.74025974,0.571428571 L1.80844156,0.571428571 C5.77815838,0.768399253 9.57736281,1.67748107 13.2061688,3.2987013 C16.8349749,4.91992153 20.0584275,7.14717198 22.8766234,9.98051948 C25.7099709,12.7987154 27.9372213,16.022168 29.5584416,19.650974 C31.1796618,23.27978 32.0887436,27.0789845 32.2857143,31.0487013 Z" id="" fill="#65DBDE"></path>
    </g>
</svg>