<?xml version="1.0" encoding="utf-8"?>
<!-- Generator: Adobe Illustrator 19.2.0, SVG Export Plug-In . SVG Version: 6.00 Build 0)  -->
<svg version="1.1" id="_x39_75bedcf-932d-4a22-b48a-d52f306e1ea5"
	 xmlns="http://www.w3.org/2000/svg" xmlns:xlink="http://www.w3.org/1999/xlink" x="0px" y="0px" viewBox="0 0 32 32"
	 style="enable-background:new 0 0 32 32;" xml:space="preserve">
<style type="text/css">
	.st0{fill:#FFFFFF;}
</style>
<title>share</title>
<path id="Combined-Shape" class="st0" d="M10.8,18.4c-0.6,0.6-1.5,1-2.4,1C6.5,19.4,5,17.9,5,16s1.5-3.4,3.4-3.4
	c0.9,0,1.8,0.4,2.4,1L20.3,9c0-0.2-0.1-0.4-0.1-0.6c0-1.9,1.5-3.4,3.4-3.4C25.5,5,27,6.5,27,8.4s-1.5,3.4-3.4,3.4
	c-0.9,0-1.8-0.4-2.4-1l-9.5,4.7c0,0.2,0.1,0.4,0.1,0.6c0,0.2,0,0.4-0.1,0.6l9.5,4.7c0.6-0.6,1.5-1,2.4-1c1.9,0,3.4,1.5,3.4,3.4
	c0,1.9-1.5,3.4-3.4,3.4c-1.9,0-3.4-1.5-3.4-3.4c0-0.2,0-0.4,0.1-0.6L10.8,18.4z"/>
</svg>
