<?xml version="1.0" encoding="UTF-8"?>
<svg width="48px" height="48px" viewBox="0 0 48 48" version="1.1" xmlns="http://www.w3.org/2000/svg" xmlns:xlink="http://www.w3.org/1999/xlink">
    <!-- Generator: Sketch 46.2 (44496) - http://www.bohemiancoding.com/sketch -->
    <title>Group</title>
    <desc>Created with Sketch.</desc>
    <defs></defs>
    <g id="Page-1" stroke="none" stroke-width="1" fill="none" fill-rule="evenodd">
        <g id="Group">
            <rect id="Rectangle" fill="#F2425B" x="0" y="0" width="48" height="48"></rect>
            <path d="M36.3125,17.375 C35.6145798,18.3958384 34.7708383,19.2656214 33.78125,19.984375 C33.7916667,20.1302091 33.796875,20.3489569 33.796875,20.640625 C33.796875,21.9947984 33.5989603,23.3463474 33.203125,24.6953125 C32.8072897,26.0442776 32.2057332,27.3385355 31.3984375,28.578125 C30.5911418,29.8177145 29.6302139,30.9140577 28.515625,31.8671875 C27.4010361,32.8203173 26.0572995,33.5807263 24.484375,34.1484375 C22.9114505,34.7161487 21.2291756,35 19.4375,35 C16.6145692,35 14.0312617,34.2447992 11.6875,32.734375 C12.0520852,32.7760419 12.4583311,32.796875 12.90625,32.796875 C15.2500117,32.796875 17.3385325,32.0781322 19.171875,30.640625 C18.0781195,30.6197916 17.0989627,30.2838574 16.234375,29.6328125 C15.3697873,28.9817676 14.7760433,28.1510467 14.453125,27.140625 C14.7968767,27.1927086 15.1145819,27.21875 15.40625,27.21875 C15.8541689,27.21875 16.2968728,27.1614589 16.734375,27.046875 C15.5677025,26.8072905 14.6015663,26.2265671 13.8359375,25.3046875 C13.0703087,24.3828079 12.6875,23.3125061 12.6875,22.09375 L12.6875,22.03125 C13.3958369,22.4270853 14.1562459,22.6406248 14.96875,22.671875 C14.2812466,22.2135394 13.734377,21.614587 13.328125,20.875 C12.921873,20.135413 12.71875,19.3333377 12.71875,18.46875 C12.71875,17.5520787 12.9479144,16.7031289 13.40625,15.921875 C14.666673,17.4739661 16.2005118,18.7161412 18.0078125,19.6484375 C19.8151132,20.5807338 21.7499897,21.0989578 23.8125,21.203125 C23.7291662,20.8072897 23.6875,20.4218769 23.6875,20.046875 C23.6875,18.6510347 24.1796826,17.4609424 25.1640625,16.4765625 C26.1484424,15.4921826 27.3385347,15 28.734375,15 C30.1927156,15 31.42187,15.5312447 32.421875,16.59375 C33.5572973,16.3749989 34.624995,15.968753 35.625,15.375 C35.2395814,16.5729227 34.5000055,17.4999967 33.40625,18.15625 C34.3750048,18.0520828 35.3437452,17.7916687 36.3125,17.375 Z" id="" fill="#FFFFFF"></path>
        </g>
    </g>
</svg>