<?xml version="1.0" encoding="UTF-8"?>
<svg width="48px" height="48px" viewBox="0 0 48 48" version="1.1" xmlns="http://www.w3.org/2000/svg" xmlns:xlink="http://www.w3.org/1999/xlink">
    <!-- Generator: Sketch 46.2 (44496) - http://www.bohemiancoding.com/sketch -->
    <title>Group</title>
    <desc>Created with Sketch.</desc>
    <defs></defs>
    <g id="Page-1" stroke="none" stroke-width="1" fill="none" fill-rule="evenodd">
        <g id="Group">
            <rect id="Rectangle" fill="#F2425B" x="0" y="0" width="48" height="48"></rect>
            <path d="M30.984375,11.1875 L30.984375,15.3125 L28.53125,15.3125 C27.6354122,15.3125 27.0312516,15.4999981 26.71875,15.875 C26.4062484,16.2500019 26.25,16.8124962 26.25,17.5625 L26.25,20.515625 L30.828125,20.515625 L30.21875,25.140625 L26.25,25.140625 L26.25,37 L21.46875,37 L21.46875,25.140625 L17.484375,25.140625 L17.484375,20.515625 L21.46875,20.515625 L21.46875,17.109375 C21.46875,15.1718653 22.0104113,13.6692762 23.09375,12.6015625 C24.1770887,11.5338488 25.6197827,11 27.421875,11 C28.9531327,11 30.1406208,11.0624994 30.984375,11.1875 Z" id="" fill="#FFFFFF"></path>
        </g>
    </g>
</svg>