<?xml version="1.0" encoding="UTF-8"?>
<svg width="48px" height="48px" viewBox="0 0 48 48" version="1.1" xmlns="http://www.w3.org/2000/svg" xmlns:xlink="http://www.w3.org/1999/xlink">
    <!-- Generator: Sketch 46.2 (44496) - http://www.bohemiancoding.com/sketch -->
    <title>Group</title>
    <desc>Created with Sketch.</desc>
    <defs></defs>
    <g id="Page-1" stroke="none" stroke-width="1" fill="none" fill-rule="evenodd">
        <g id="Group">
            <rect id="Rectangle" fill="#F2425B" x="0" y="0" width="48" height="48"></rect>
            <path d="M17.453125,20.765625 L17.453125,36.25 L12.296875,36.25 L12.296875,20.765625 L17.453125,20.765625 Z M17.78125,15.984375 C17.7916667,16.7447955 17.5286485,17.3802058 16.9921875,17.890625 C16.4557265,18.4010442 15.7500044,18.65625 14.875,18.65625 L14.84375,18.65625 C13.9895791,18.65625 13.3020859,18.4010442 12.78125,17.890625 C12.2604141,17.3802058 12,16.7447955 12,15.984375 C12,15.2135378 12.2682265,14.5755234 12.8046875,14.0703125 C13.3411485,13.5651016 14.0416623,13.3125 14.90625,13.3125 C15.7708377,13.3125 16.4635391,13.5651016 16.984375,14.0703125 C17.5052109,14.5755234 17.7708333,15.2135378 17.78125,15.984375 Z M25.4375,22.9659991 C25.6359246,22.653264 25.8390478,22.3781418 26.046875,22.140625 C26.2656261,21.8906238 26.559894,21.6197931 26.9296875,21.328125 C27.299481,21.0364569 27.7526015,20.8098966 28.2890625,20.6484375 C28.8255235,20.4869784 29.4218717,20.40625 30.078125,20.40625 C31.8593839,20.40625 33.2916613,20.9973899 34.375,22.1796875 C35.4583387,23.3619851 36,25.0937386 36,27.375 L36,36.25 L30.859375,36.25 L30.859375,27.96875 C30.859375,26.8749945 30.6484396,26.0182323 30.2265625,25.3984375 C29.8046854,24.7786427 29.1458378,24.46875 28.25,24.46875 C27.5937467,24.46875 27.044273,24.6484357 26.6015625,25.0078125 C26.158852,25.3671893 25.8281261,25.8124973 25.609375,26.34375 C25.4947911,26.6562516 25.4375,27.0781223 25.4375,27.609375 L25.4375,36.25 L20.296875,36.25 C20.3177084,32.0937292 20.328125,28.7239712 20.328125,26.140625 C20.328125,23.5572788 20.3229167,22.0156275 20.3125,21.515625 L20.296875,20.765625 L25.4375,20.765625 L25.4375,22.9659991 L25.4375,22.9659991 Z" id="" fill="#FFFFFF"></path>
        </g>
    </g>
</svg>