<?xml version="1.0" encoding="UTF-8"?>
<svg width="32px" height="32px" viewBox="0 0 32 32" version="1.1" xmlns="http://www.w3.org/2000/svg" xmlns:xlink="http://www.w3.org/1999/xlink">
    <!-- Generator: Sketch 46.2 (44496) - http://www.bohemiancoding.com/sketch -->
    <title>twitter-footer</title>
    <desc>Created with Sketch.</desc>
    <defs></defs>
    <g id="Page-1" stroke="none" stroke-width="1" fill="none" fill-rule="evenodd">
        <g id="twitter-footer">
            <g id="Fill-1" fill-rule="nonzero" fill="#65DBDE">
                <path d="M16,32 C7.2,32 0,24.8 0,16 C0,7.2 7.2,0 16,0 C24.8,0 32,7.2 32,16 C32,24.8 24.8,32 16,32 Z"></path>
            </g>
            <path d="M25.234375,10.78125 C24.7109349,11.5468788 24.0781287,12.1992161 23.3359375,12.7382812 C23.34375,12.8476568 23.3476562,13.0117177 23.3476562,13.2304688 C23.3476562,14.2460988 23.1992202,15.2597606 22.9023438,16.2714844 C22.6054673,17.2832082 22.1542999,18.2539016 21.5488281,19.1835938 C20.9433563,20.1132859 20.2226604,20.9355433 19.3867188,21.6503906 C18.5507771,22.3652379 17.5429746,22.9355447 16.3632812,23.3613281 C15.1835879,23.7871115 13.9218817,24 12.578125,24 C10.4609269,24 8.52344629,23.4335994 6.765625,22.3007812 C7.03906387,22.3320314 7.34374832,22.3476562 7.6796875,22.3476562 C9.43750879,22.3476562 11.0038994,21.8085991 12.3789062,20.7304688 C11.5585896,20.7148437 10.824222,20.4628931 10.1757812,19.9746094 C9.52734051,19.4863257 9.08203246,18.863285 8.83984375,18.1054688 C9.09765754,18.1445314 9.33593641,18.1640625 9.5546875,18.1640625 C9.89062668,18.1640625 10.2226546,18.1210942 10.5507812,18.0351562 C9.67577688,17.8554679 8.95117475,17.4199253 8.37695312,16.7285156 C7.8027315,16.0371059 7.515625,15.2343796 7.515625,14.3203125 L7.515625,14.2734375 C8.04687766,14.570314 8.61718445,14.7304686 9.2265625,14.7539062 C8.71093492,14.4101545 8.30078277,13.9609403 7.99609375,13.40625 C7.69140473,12.8515597 7.5390625,12.2500032 7.5390625,11.6015625 C7.5390625,10.9140591 7.71093578,10.2773467 8.0546875,9.69140625 C9.00000473,10.8554746 10.1503838,11.7871059 11.5058594,12.4863281 C12.8613349,13.1855504 14.3124923,13.5742184 15.859375,13.6523438 C15.7968747,13.3554673 15.765625,13.0664077 15.765625,12.7851562 C15.765625,11.738276 16.1347619,10.8457068 16.8730469,10.1074219 C17.6113318,9.36913693 18.503901,9 19.5507812,9 C20.6445367,9 21.5664025,9.39843352 22.3164062,10.1953125 C23.167973,10.0312492 23.9687462,9.72656473 24.71875,9.28125 C24.4296861,10.179692 23.8750041,10.8749975 23.0546875,11.3671875 C23.7812536,11.2890621 24.5078089,11.0937516 25.234375,10.78125 Z" id="" fill="#30373D"></path>
        </g>
    </g>
</svg>