<?xml version="1.0" encoding="utf-8"?>
<!-- Generator: Adobe Illustrator 19.2.0, SVG Export Plug-In . SVG Version: 6.00 Build 0)  -->
<svg version="1.1" id="Livello_1" xmlns="http://www.w3.org/2000/svg" xmlns:xlink="http://www.w3.org/1999/xlink" x="0px" y="0px"
	 viewBox="0 0 32 32" style="enable-background:new 0 0 32 32;" xml:space="preserve">
<style type="text/css">
	.st0{clip-path:url(#SVGID_2_);}
	.st1{clip-path:url(#SVGID_4_);}
	.st2{clip-path:url(#SVGID_6_);enable-background:new    ;}
	.st3{clip-path:url(#SVGID_8_);}
	.st4{clip-path:url(#SVGID_10_);fill:#FFFFFF;}
	.st5{filter:url(#Adobe_OpacityMaskFilter);}
	.st6{fill:#FFFFFF;}
	.st7{mask:url(#mask-2_1_);fill:#FFFFFF;}
</style>
<g>
	<g>
		<defs>
			<polygon id="SVGID_1_" points="32,16 32,32 0,32 0,16 0,0 32,0 			"/>
		</defs>
		<clipPath id="SVGID_2_">
			<use xlink:href="#SVGID_1_"  style="overflow:visible;"/>
		</clipPath>
		<g class="st0">
			<g>
				<defs>
					<rect id="SVGID_3_" width="32" height="32"/>
				</defs>
				<clipPath id="SVGID_4_">
					<use xlink:href="#SVGID_3_"  style="overflow:visible;"/>
				</clipPath>
				<g class="st1">
					<g>
						<g>
							<defs>
								<rect id="SVGID_5_" x="4" y="7" width="24" height="18"/>
							</defs>
							<clipPath id="SVGID_6_">
								<use xlink:href="#SVGID_5_"  style="overflow:visible;"/>
							</clipPath>
							<g class="st2">
								<g>
									<defs>
										<path id="SVGID_7_" d="M20,22c0,0.6-0.4,1-1,1H7c-0.6,0-1-0.4-1-1V10c0-0.6,0.4-1,1-1h12c0.6,0,1,0.5,1,1v3.5v4.9V22z
											 M26,19.1l-4-1.3v-3.5l4-1.3V19.1z M27.6,10.7c-0.3-0.2-0.6-0.2-0.9-0.1L22,12.2V10c0-1.7-1.3-3-3-3H7c-1.7,0-3,1.4-3,3
											v12c0,1.7,1.3,3,3,3h12c1.7,0,3-1.3,3-3v-2.2l4.7,1.6c0.1,0,0.2,0.1,0.3,0.1c0.2,0,0.4-0.1,0.6-0.2
											c0.3-0.2,0.4-0.5,0.4-0.8v-8.9C28,11.2,27.8,10.9,27.6,10.7z"/>
									</defs>
									<clipPath id="SVGID_8_">
										<use xlink:href="#SVGID_7_"  style="overflow:visible;"/>
									</clipPath>
									<g class="st3">
										<g>
											<defs>
												<rect id="SVGID_9_" x="4" y="7" width="24" height="18"/>
											</defs>
											<clipPath id="SVGID_10_">
												<use xlink:href="#SVGID_9_"  style="overflow:visible;"/>
											</clipPath>
											<rect x="-1" y="2" class="st4" width="34" height="28"/>
										</g>
									</g>
								</g>
							</g>
						</g>
					</g>
				</g>
			</g>
		</g>
	</g>
</g>
<g id="HOME">
	<g id="Desktop_Home" transform="translate(-948.000000, -2462.000000)">
		<g id="Le-gallerie" transform="translate(0.000000, 2114.000000)">
			<g id="intervista-3" transform="translate(928.000000, 95.000000)">
				<g id="video-icon" transform="translate(16.000000, 246.000000)">
					<g>
						<g id="Clip-2">
						</g>
						<defs>
							<filter id="Adobe_OpacityMaskFilter" filterUnits="userSpaceOnUse" x="8" y="14" width="24" height="18">
								<feColorMatrix  type="matrix" values="1 0 0 0 0  0 1 0 0 0  0 0 1 0 0  0 0 0 1 0"/>
							</filter>
						</defs>
						<mask maskUnits="userSpaceOnUse" x="8" y="14" width="24" height="18" id="mask-2_1_">
							<g class="st5">
								<polygon id="path-1_1_" class="st6" points="36,23 36,39 4,39 4,23 4,7 36,7 								"/>
							</g>
						</mask>
						<path id="Fill-1" class="st7" d="M31.6,17.7c0.3,0.2,0.4,0.5,0.4,0.8v8.9c0,0.3-0.2,0.6-0.4,0.8c-0.2,0.1-0.4,0.2-0.6,0.2
							c-0.1,0-0.2,0-0.3-0.1L26,26.8V29c0,1.7-1.3,3-3,3H11c-1.7,0-3-1.3-3-3V17c0-1.7,1.3-3,3-3h12c1.7,0,3,1.4,3,3v2.1l4.7-1.6
							C31,17.5,31.3,17.5,31.6,17.7z M30,26.1v-6.1l-4,1.3v3.5L30,26.1z M24,29v-3.6v-4.9V17c0-0.6-0.4-1-1-1H11c-0.6,0-1,0.5-1,1
							v12c0,0.6,0.4,1,1,1h12C23.6,30,24,29.6,24,29z"/>
					</g>
				</g>
			</g>
		</g>
	</g>
</g>
</svg>
