<?xml version="1.0" encoding="utf-8"?>
<!-- Generator: Adobe Illustrator 19.2.0, SVG Export Plug-In . SVG Version: 6.00 Build 0)  -->
<svg version="1.1" id="Livello_1" xmlns="http://www.w3.org/2000/svg" xmlns:xlink="http://www.w3.org/1999/xlink" x="0px" y="0px"
	 viewBox="0 0 32 32" style="enable-background:new 0 0 32 32;" xml:space="preserve">
<style type="text/css">
	.st0{fill:#65DBDE;}
	.st1{fill:#30373D;}
</style>
<g id="Tablet_Home" transform="translate(-192.000000, -3213.000000)">
	<g id="Footer-tablet" transform="translate(0.000000, 2581.000000)">
		<g id="Footer">
			<g id="Seguici-su" transform="translate(32.000000, 554.000000)">
				<g id="youtube" transform="translate(160.000000, 78.000000)">
					<path id="Fill-1" class="st0" d="M16,32C7.2,32,0,24.8,0,16C0,7.2,7.2,0,16,0s16,7.2,16,16C32,24.8,24.8,32,16,32z"/>
					<path id="Fill-3" class="st1" d="M13.5,19.6l0-6.7l6.5,3.4L13.5,19.6z M27.8,11.6c0,0-0.2-1.7-1-2.4c-0.9-1-1.9-1-2.4-1
						C21,8,16,8,16,8h0c0,0-5,0-8.4,0.2c-0.5,0.1-1.5,0.1-2.4,1c-0.7,0.7-1,2.4-1,2.4S4,13.6,4,15.5v1.8c0,1.9,0.2,3.9,0.2,3.9
						s0.2,1.7,1,2.4c0.9,1,2.1,0.9,2.6,1c1.9,0.2,8.2,0.2,8.2,0.2s5,0,8.4-0.3c0.5-0.1,1.5-0.1,2.4-1c0.7-0.7,1-2.4,1-2.4
						s0.2-1.9,0.2-3.9v-1.8C28,13.6,27.8,11.6,27.8,11.6L27.8,11.6z"/>
				</g>
			</g>
		</g>
	</g>
</g>
</svg>
